<svg width="27" height="27" viewBox="0 0 27 27" fill="none" xmlns="http://www.w3.org/2000/svg">
<path fill-rule="evenodd" clip-rule="evenodd" d="M2.7 5.4C4.19117 5.4 5.4 4.19117 5.4 2.7C5.4 1.20883 4.19117 0 2.7 0C1.20883 0 0 1.20883 0 2.7C0 4.19117 1.20883 5.4 2.7 5.4ZM13.5 5.4C14.9912 5.4 16.2 4.19117 16.2 2.7C16.2 1.20883 14.9912 0 13.5 0C12.0088 0 10.8 1.20883 10.8 2.7C10.8 4.19117 12.0088 5.4 13.5 5.4ZM27 2.7C27 4.19117 25.7912 5.4 24.3 5.4C22.8088 5.4 21.6 4.19117 21.6 2.7C21.6 1.20883 22.8088 0 24.3 0C25.7912 0 27 1.20883 27 2.7ZM2.7 16.2C4.19117 16.2 5.4 14.9912 5.4 13.5C5.4 12.0088 4.19117 10.8 2.7 10.8C1.20883 10.8 0 12.0088 0 13.5C0 14.9912 1.20883 16.2 2.7 16.2ZM16.2 13.5C16.2 14.9912 14.9912 16.2 13.5 16.2C12.0088 16.2 10.8 14.9912 10.8 13.5C10.8 12.0088 12.0088 10.8 13.5 10.8C14.9912 10.8 16.2 12.0088 16.2 13.5ZM24.3 16.2C25.7912 16.2 27 14.9912 27 13.5C27 12.0088 25.7912 10.8 24.3 10.8C22.8088 10.8 21.6 12.0088 21.6 13.5C21.6 14.9912 22.8088 16.2 24.3 16.2ZM5.4 24.3C5.4 25.7912 4.19117 27 2.7 27C1.20883 27 0 25.7912 0 24.3C0 22.8088 1.20883 21.6 2.7 21.6C4.19117 21.6 5.4 22.8088 5.4 24.3ZM13.5 27C14.9912 27 16.2 25.7912 16.2 24.3C16.2 22.8088 14.9912 21.6 13.5 21.6C12.0088 21.6 10.8 22.8088 10.8 24.3C10.8 25.7912 12.0088 27 13.5 27Z" fill="white"/>
</svg>
